<svg viewBox="0 0 720 500" xmlns="http://www.w3.org/2000/svg">
  <rect width="720" height="500" fill="#f3f4f6" rx="12"/>
  <rect x="0" y="0" width="720" height="42" fill="#e5e7eb" rx="12"/>
  <rect x="0" y="28" width="720" height="14" fill="#e5e7eb"/>
  <circle cx="22" cy="21" r="5" fill="#ff5f57"/>
  <circle cx="40" cy="21" r="5" fill="#ffbd2e"/>
  <circle cx="58" cy="21" r="5" fill="#28c840"/>
  <rect x="180" y="12" width="360" height="18" rx="9" fill="#d1d5db"/>
  <text x="360" y="25" text-anchor="middle" fill="#6b7280" font-family="-apple-system,sans-serif" font-size="10">chrome-extension://promptassist/options/options.html</text>

  <rect x="100" y="60" width="520" height="420" rx="12" fill="white" stroke="#e5e7eb" stroke-width="1"/>
  <rect x="100" y="60" width="520" height="56" rx="12" fill="#4f46e5"/>
  <rect x="100" y="96" width="520" height="20" fill="#4f46e5"/>
  <text x="136" y="82" fill="white" font-family="-apple-system,sans-serif" font-size="16" font-weight="500">✦  PromptAssist — Settings</text>
  <text x="136" y="100" fill="#a5b4fc" font-family="-apple-system,sans-serif" font-size="11">API provider, model, rewrite preferences &amp; usage tracking</text>

  <!-- API row condensed -->
  <text x="130" y="142" fill="#374151" font-family="-apple-system,sans-serif" font-size="11" font-weight="500">API PROVIDER</text>
  <text x="130" y="166" fill="#6b7280" font-family="-apple-system,sans-serif" font-size="12">Provider</text>
  <rect x="300" y="152" width="290" height="26" rx="6" fill="#f9fafb" stroke="#d1d5db" stroke-width="1"/>
  <text x="316" y="169" fill="#111827" font-family="-apple-system,sans-serif" font-size="12">OpenRouter — one key, all models</text>
  <text x="572" y="169" fill="#6b7280" font-family="-apple-system,sans-serif" font-size="12">▾</text>

  <line x1="120" y1="196" x2="600" y2="196" stroke="#f3f4f6" stroke-width="1"/>

  <!-- Token usage section (NEW) -->
  <text x="130" y="218" fill="#374151" font-family="-apple-system,sans-serif" font-size="11" font-weight="500">TOKEN USAGE</text>
  <text x="232" y="218" fill="#9ca3af" font-family="-apple-system,sans-serif" font-size="10">— June 2026</text>
  <text x="130" y="236" fill="#9ca3af" font-family="-apple-system,sans-serif" font-size="10.5">PromptAssist usage from your API key, by platform · resets monthly</text>

  <!-- per-platform breakdown -->
  <text x="130" y="262" fill="#374151" font-family="-apple-system,sans-serif" font-size="11.5">Claude (claude.ai)</text>
  <rect x="300" y="254" width="230" height="6" rx="3" fill="#eef0f3"/>
  <rect x="300" y="254" width="120" height="6" rx="3" fill="#4f46e5"/>
  <text x="590" y="262" text-anchor="end" fill="#4f46e5" font-family="-apple-system,sans-serif" font-size="11" font-weight="600">62.0K</text>

  <text x="130" y="286" fill="#374151" font-family="-apple-system,sans-serif" font-size="11.5">ChatGPT (chatgpt.com)</text>
  <rect x="300" y="278" width="230" height="6" rx="3" fill="#eef0f3"/>
  <rect x="300" y="278" width="62" height="6" rx="3" fill="#f59e0b"/>
  <text x="590" y="286" text-anchor="end" fill="#f59e0b" font-family="-apple-system,sans-serif" font-size="11" font-weight="600">31.4K</text>

  <text x="130" y="310" fill="#374151" font-family="-apple-system,sans-serif" font-size="11.5">Gemini (gemini.google.com)</text>
  <rect x="300" y="302" width="230" height="6" rx="3" fill="#eef0f3"/>
  <rect x="300" y="302" width="24" height="6" rx="3" fill="#22c55e"/>
  <text x="590" y="310" text-anchor="end" fill="#22c55e" font-family="-apple-system,sans-serif" font-size="11" font-weight="600">12.1K</text>

  <!-- total bar -->
  <rect x="130" y="334" width="460" height="8" rx="4" fill="#eef0f3"/>
  <rect x="130" y="334" width="190" height="8" rx="4" fill="#4f46e5"/>
  <text x="130" y="362" fill="#6b7280" font-family="-apple-system,sans-serif" font-size="11">Total: 105.5K used · 394.5K remaining of 500K monthly budget</text>

  <text x="130" y="392" fill="#6b7280" font-family="-apple-system,sans-serif" font-size="12">Monthly budget (tokens)</text>
  <rect x="300" y="378" width="160" height="26" rx="6" fill="#f9fafb" stroke="#d1d5db" stroke-width="1"/>
  <text x="316" y="395" fill="#111827" font-family="-apple-system,sans-serif" font-size="12">500000</text>

  <rect x="496" y="378" width="94" height="26" rx="6" fill="white" stroke="#d1d5db" stroke-width="1"/>
  <text x="543" y="395" text-anchor="middle" fill="#6b7280" font-family="-apple-system,sans-serif" font-size="11">Reset counter</text>

  <!-- footer buttons -->
  <rect x="430" y="430" width="80" height="30" rx="6" fill="white" stroke="#d1d5db" stroke-width="1"/>
  <text x="470" y="449" text-anchor="middle" fill="#6b7280" font-family="-apple-system,sans-serif" font-size="12">Reset all</text>
  <rect x="522" y="430" width="78" height="30" rx="6" fill="#4f46e5"/>
  <text x="561" y="449" text-anchor="middle" fill="white" font-family="-apple-system,sans-serif" font-size="12">Save</text>
</svg>
